<svg xmlns="http://www.w3.org/2000/svg" width="1400" height="900" viewBox="0 0 1400 900">
<style>.t{font:700 30px Arial}.l{font:16px Arial}.s{font:14px Arial}.a{stroke:#222;stroke-width:2;fill:none}.u{fill:#fff;stroke:#333;stroke-width:2}.b{fill:#f9f9f9;stroke:#444;stroke-width:2}.ln{stroke:#555;stroke-width:2}</style>
<text x="540" y="45" class="t">Use Case 02 - Authentication</text>
<rect x="260" y="90" width="900" height="740" rx="10" class="b"/><text x="600" y="120" class="l">Authentication Module</text>
<circle cx="110" cy="220" r="18" class="a"/><line x1="110" y1="238" x2="110" y2="300" class="a"/><line x1="80" y1="260" x2="140" y2="260" class="a"/><line x1="110" y1="300" x2="85" y2="340" class="a"/><line x1="110" y1="300" x2="135" y2="340" class="a"/><text x="85" y="370" class="s">Guest</text>
<circle cx="110" cy="560" r="18" class="a"/><line x1="110" y1="578" x2="110" y2="640" class="a"/><line x1="80" y1="600" x2="140" y2="600" class="a"/><line x1="110" y1="640" x2="85" y2="680" class="a"/><line x1="110" y1="640" x2="135" y2="680" class="a"/><text x="92" y="710" class="s">User</text>
<ellipse cx="520" cy="220" rx="130" ry="35" class="u"/><text x="472" y="226" class="l">Register</text>
<ellipse cx="840" cy="220" rx="130" ry="35" class="u"/><text x="805" y="226" class="l">Login</text>
<ellipse cx="520" cy="430" rx="170" ry="35" class="u"/><text x="436" y="436" class="l">Update Profile</text>
<ellipse cx="840" cy="430" rx="170" ry="35" class="u"/><text x="750" y="436" class="l">Change Password</text>
<ellipse cx="680" cy="640" rx="170" ry="35" class="u"/><text x="584" y="646" class="l">Verify Password Hash</text>
<line x1="140" y1="260" x2="390" y2="220" class="ln"/><line x1="140" y1="260" x2="710" y2="220" class="ln"/>
<line x1="140" y1="600" x2="350" y2="430" class="ln"/><line x1="140" y1="600" x2="670" y2="430" class="ln"/>
<line x1="840" y1="255" x2="720" y2="605" class="ln"/>
</svg>
