<svg xmlns="http://www.w3.org/2000/svg" width="1400" height="900" viewBox="0 0 1400 900">
<style>.t{font:700 30px Arial}.l{font:16px Arial}.s{font:14px Arial}.a{stroke:#222;stroke-width:2;fill:none}.u{fill:#fff;stroke:#333;stroke-width:2}.b{fill:#f9f9f9;stroke:#444;stroke-width:2}.ln{stroke:#555;stroke-width:2}</style>
<text x="520" y="45" class="t">Use Case 06 - Payment Flow</text>
<rect x="260" y="90" width="900" height="740" rx="10" class="b"/><text x="610" y="120" class="l">Payment Module</text>
<circle cx="110" cy="350" r="18" class="a"/><line x1="110" y1="368" x2="110" y2="430" class="a"/><line x1="80" y1="390" x2="140" y2="390" class="a"/><line x1="110" y1="430" x2="85" y2="470" class="a"/><line x1="110" y1="430" x2="135" y2="470" class="a"/><text x="92" y="500" class="s">User</text>
<circle cx="1300" cy="350" r="18" class="a"/><line x1="1300" y1="368" x2="1300" y2="430" class="a"/><line x1="1270" y1="390" x2="1330" y2="390" class="a"/><line x1="1300" y1="430" x2="1275" y2="470" class="a"/><line x1="1300" y1="430" x2="1325" y2="470" class="a"/><text x="1248" y="500" class="s">Razorpay API</text>
<ellipse cx="470" cy="230" rx="170" ry="35" class="u"/><text x="374" y="236" class="l">Choose Subscription Plan</text>
<ellipse cx="760" cy="230" rx="150" ry="35" class="u"/><text x="684" y="236" class="l">Create Order</text>
<ellipse cx="1020" cy="230" rx="140" ry="35" class="u"/><text x="951" y="236" class="l">Complete Payment</text>
<ellipse cx="620" cy="500" rx="160" ry="35" class="u"/><text x="530" y="506" class="l">Verify Signature</text>
<ellipse cx="930" cy="500" rx="200" ry="35" class="u"/><text x="815" y="506" class="l">Activate Subscription Plan</text>
<line x1="140" y1="390" x2="300" y2="230" class="ln"/><line x1="140" y1="390" x2="610" y2="230" class="ln"/>
<line x1="640" y1="230" x2="610" y2="465" class="ln"/><line x1="760" y1="265" x2="840" y2="465" class="ln"/>
<line x1="1170" y1="230" x2="1280" y2="390" class="ln"/><line x1="1270" y1="390" x2="780" y2="500" class="ln"/>
</svg>
